<?xml version="1.0" encoding="utf-8"?>
<!-- Generator: Adobe Illustrator 27.0.0, SVG Export Plug-In . SVG Version: 6.00 Build 0)  -->
<svg version="1.1" id="Layer_1" xmlns="http://www.w3.org/2000/svg" xmlns:xlink="http://www.w3.org/1999/xlink" x="0px" y="0px"
	 viewBox="0 0 73 60" style="enable-background:new 0 0 73 60;" xml:space="preserve">
<path d="M4,11c2.3-2.3,4.7-4.5,6.9-6.9c1.2-1.3,2.5-1.8,4.2-1.7c8.8,0.1,17.6,0,26.4,0c0.3,0,0.5,0,0.9,0c0,4.8,0,9.5,0,14.3
	c5.1,0.9,8.8,3.6,10.6,8.4c1.8,4.8,0.9,9.2-2.2,13.2c1.4,1.4,2.8,2.8,4.3,4.2c0.5-0.6,1.1-1.2,1.8-2c0.3,0.3,0.5,0.4,0.6,0.6
	c3.3,3.3,6.6,6.6,9.9,9.9c0.6,0.6,1.2,1.3,1.4,2.2c0,0.1,0.2,0.2,0.2,0.2c0,0.5,0,0.9,0,1.4c-0.1,0.2-0.3,0.3-0.3,0.5
	c-0.9,2.6-4,3.5-6.1,1.7c-0.2-0.2-0.4-0.4-0.6-0.6c-3.3-3.3-6.7-6.7-10-10c-0.1-0.1-0.3-0.3-0.5-0.4c0.7-0.7,1.4-1.3,2-1.9
	c-1.6-1.5-3-3-4.4-4.4c-2.6,2.1-5.6,3.2-9.1,3.1c-2.7-0.1-5.2-1-7.4-2.7c-4.2-3.2-6.1-8.7-4.6-14c1.3-4.7,5.6-9.3,12.4-9.6
	c0-4.1,0-8.1,0-12.2c-8.8,0-17.7,0-26.5,0c0,2.7,0,5.4,0,8.1c-2.7,0-5.4,0-8.1,0C6,26.8,6,41,6,55.3c11.5,0,23.1,0,34.6,0
	c0-3.1,0-6.1,0-9.2c0.7,0,1.3,0,1.9,0c0,3.7,0,7.4,0,11.1c-0.2,0-0.4,0-0.6,0c-12.4,0-24.9,0-37.3,0c-0.2,0-0.4,0-0.6,0
	C4,41.8,4,26.4,4,11z M29.6,29.7c0,6.1,5,11.2,11.2,11.3c6.2,0,11.2-5,11.3-11.2c0.1-6.2-5-11.3-11.2-11.3
	C34.7,18.5,29.7,23.5,29.6,29.7z M54.5,46.1c0.1,0.1,0.2,0.2,0.3,0.3c3,3,6,6,9,9c0.1,0.1,0.3,0.3,0.4,0.4c1.1,0.8,2.5,0.3,2.9-1
	c0.3-0.9-0.1-1.6-0.7-2.2c-3-3-5.9-5.9-8.9-8.9c-0.1-0.1-0.3-0.2-0.4-0.3C56.3,44.3,55.4,45.2,54.5,46.1z M7.3,10.5
	c1.8,0,3.3,0,4.8,0c0-1.6,0-3.2,0-4.6C10.5,7.4,9,8.9,7.3,10.5z"/>
<path d="M26.4,16.7c0,0.6,0,1.2,0,1.8c-4.7,0-9.4,0-14.2,0c0-0.6,0-1.2,0-1.8C16.9,16.7,21.6,16.7,26.4,16.7z"/>
<path d="M26.4,26.9c0,0.6,0,1.2,0,1.8c-4.7,0-9.4,0-14.2,0c0-0.6,0-1.2,0-1.8C16.9,26.9,21.6,26.9,26.4,26.9z"/>
<path d="M12.2,38.9c0-0.6,0-1.2,0-1.8c4.7,0,9.4,0,14.2,0c0,0.6,0,1.2,0,1.8C21.6,38.9,16.9,38.9,12.2,38.9z"/>
<path d="M12.2,22.6c0-0.6,0-1.2,0-1.8c3.4,0,6.7,0,10.1,0c0,0.6,0,1.2,0,1.8C18.9,22.6,15.6,22.6,12.2,22.6z"/>
<path d="M22.3,31c0,0.6,0,1.2,0,1.8c-3.4,0-6.7,0-10.1,0c0-0.6,0-1.2,0-1.8C15.5,31,18.9,31,22.3,31z"/>
<path d="M12.2,42.9c0-0.6,0-1.2,0-1.8c2.7,0,5.4,0,8.1,0c0,0.6,0,1.2,0,1.8C17.6,42.9,14.9,42.9,12.2,42.9z"/>
<path d="M36,28.3c-0.5,0.4-0.9,0.7-1.4,1c-0.4,0.3-0.8,0.7-1.2,1.1c-0.5-0.4-0.9-0.8-1.4-1.2c5.5-5.8,12-5.9,17.6,0
	c-0.4,0.4-0.9,0.8-1.3,1.2c-0.8-0.7-1.7-1.4-2.7-2.2c0.4,2.1,0,3.9-1.4,5.3c-1,0.9-2.2,1.4-3.6,1.3C38,34.7,35.2,32.3,36,28.3z
	 M44,29.7c0-1.7-1.4-3.1-3.1-3.1c-1.7,0-3.1,1.5-3.1,3.1c0,1.7,1.5,3.1,3.1,3.1C42.6,32.9,44,31.5,44,29.7z"/>
</svg>
